<svg width="1014" height="134" viewBox="0 0 1014 134" fill="none" xmlns="http://www.w3.org/2000/svg">
<g clip-path="url(#clip0_116_1241)">
<path fill-rule="evenodd" clip-rule="evenodd" d="M44.0008 131.644H28.7265C13.1029 131.644 0.360352 118.844 0.360352 103.15V87.8072V43.9702H39.5869H39.634V84.5195C39.634 86.3302 41.1043 87.8072 42.907 87.8072H44.0008H84.9016H88.7349C90.5376 87.8072 92.0079 86.3302 92.0079 84.5195V43.9702H131.282H131.282V87.8072H131.282V131.644H92.0079V120.693C92.0032 126.726 87.1041 131.644 81.098 131.644H44.001H44.0008Z" fill="white"/>
<path fill-rule="evenodd" clip-rule="evenodd" d="M65.8213 0.133301L131.282 43.9703H92.0082V84.5195C92.0082 86.3303 90.5379 87.8072 88.7352 87.8072H65.8213H42.9073C41.1047 87.8072 39.6344 86.3303 39.6344 84.5195V43.9703H39.5872H19.9977H0.36084L19.9977 30.82V17.6699H39.5872V17.7015L65.8213 0.133301Z" fill="black"/>
</g>
<path d="M223.883 132.138C215.157 132.138 207.635 130.879 201.317 128.361C195.073 125.759 190.259 121.73 186.874 116.275C183.489 110.819 181.797 103.685 181.797 94.8719V41.2393H204.363V93.7388C204.363 97.6836 204.927 101.083 206.056 103.937C207.184 106.79 209.177 108.972 212.036 110.483C214.894 111.994 218.956 112.749 224.221 112.749C229.412 112.749 233.436 111.994 236.294 110.483C239.228 108.972 241.259 106.79 242.387 103.937C243.591 101.083 244.192 97.6836 244.192 93.7388V41.2393H266.194V94.8719C266.194 103.685 264.502 110.819 261.117 116.275C257.732 121.73 252.88 125.759 246.562 128.361C240.319 130.879 232.759 132.138 223.883 132.138Z" fill="white"/>
<path d="M278.449 130.627V41.2393H327.869C338.55 41.2393 346.561 43.7992 351.902 48.919C357.318 53.955 360.026 61.299 360.026 70.9512C360.026 77.9176 358.521 83.7089 355.513 88.3251C352.579 92.9414 348.291 96.3826 342.65 98.6488L360.816 130.627H335.09L319.52 101.922H301.015V130.627H278.449ZM325.838 59.8722H301.015V83.9187H325.838C333.586 83.9187 337.46 80.0998 337.46 72.462V71.203C337.46 63.6491 333.586 59.8722 325.838 59.8722Z" fill="white"/>
<path d="M370.234 130.627V41.2393H417.511C428.042 41.2393 436.203 43.1697 441.995 47.0306C447.787 50.8914 450.683 56.8926 450.683 65.034C450.683 69.3145 449.705 73.1754 447.749 76.6166C445.794 80.0578 442.597 82.7856 438.159 84.8C443.274 86.7304 446.922 89.3323 449.103 92.6057C451.285 95.879 452.375 99.8658 452.375 104.566C452.375 113.211 449.404 119.716 443.462 124.08C437.595 128.445 429.283 130.627 418.526 130.627H370.234ZM417.623 59.4945H392.801V76.8684H417.623C425.146 76.8684 428.907 74.1406 428.907 68.685V67.552C428.907 62.1803 425.146 59.4945 417.623 59.4945ZM392.801 111.994H418.526C426.274 111.994 430.148 109.098 430.148 103.307V102.174C430.148 96.8023 426.274 94.1165 418.526 94.1165H392.801V111.994Z" fill="white"/>
<path d="M451.393 130.627L490.433 41.2393H514.353L553.393 130.627H529.36L520.559 109.476H482.76L474.072 130.627H451.393ZM489.982 92.3539H513.563L501.829 64.1527L489.982 92.3539Z" fill="white"/>
<path d="M559.755 130.627V41.2393H582.886L621.248 91.3467H621.361V41.2393H642.348V130.627H625.085L580.855 72.9656H580.742V130.627H559.755Z" fill="white"/>
<path d="M715.253 132.138C704.639 132.138 695.187 130.28 686.895 126.565C678.686 122.767 672.218 117.483 667.492 110.713C662.848 103.861 660.526 95.8113 660.526 86.5646C660.526 77.3179 662.848 69.3096 667.492 62.5397C672.218 55.7698 678.686 50.5272 686.895 46.812C695.187 43.0969 704.639 41.2393 715.253 41.2393C724.54 41.2393 732.708 42.5602 739.756 45.2021C746.804 47.844 752.608 51.4767 757.169 56.1C761.729 60.6408 764.798 65.7595 766.373 71.4562L744.109 76.7813C742.368 72.4882 740.046 69.1445 737.144 66.7503C734.242 64.2735 730.925 62.5397 727.194 61.549C723.545 60.5583 719.689 60.0629 715.626 60.0629C710.154 60.0629 705.137 61.0123 700.576 62.9112C696.016 64.7275 692.367 67.4933 689.631 71.2085C686.978 74.9237 685.651 79.6296 685.651 85.3262V87.803C685.651 93.4171 686.978 98.123 689.631 101.921C692.367 105.636 696.016 108.443 700.576 110.342C705.137 112.158 710.154 113.066 715.626 113.066C719.689 113.066 723.545 112.571 727.194 111.58C730.925 110.59 734.242 108.897 737.144 106.503C740.046 104.026 742.368 100.641 744.109 96.348L766.373 101.673C764.798 107.37 761.729 112.53 757.169 117.153C752.608 121.694 746.804 125.326 739.756 128.051C732.708 130.775 724.54 132.138 715.253 132.138Z" stroke="white" stroke-width="2.71785"/>
<path d="M776.117 130.528V42.6015H830.595C842.37 42.6015 851.201 45.1196 857.088 50.1557C863.058 55.1093 866.043 62.3333 866.043 71.8277C866.043 78.6802 864.385 84.3768 861.068 88.9176C857.834 93.4584 853.108 96.8433 846.889 99.0725L866.914 130.528H838.556L821.391 102.292H800.993V130.528H776.117ZM828.357 60.9298H800.993V84.5832H828.357C836.897 84.5832 841.168 80.8267 841.168 73.3138V72.0754C841.168 64.645 836.897 60.9298 828.357 60.9298Z" stroke="white" stroke-width="2.71785"/>
<path d="M877.297 130.528V42.6015H914.859L944.461 103.655H944.586L974.188 42.6015H1012V130.528H987.124V65.388H986.999L955.158 130.528H932.397L900.556 65.388H900.431V130.528H877.297Z" stroke="white" stroke-width="2.71785"/>
<defs>
<clipPath id="clip0_116_1241">
<rect width="131.643" height="131.643" fill="white"/>
</clipPath>
</defs>
</svg>
