<svg width="22" height="22" viewBox="0 0 22 22" fill="none" xmlns="http://www.w3.org/2000/svg">
<g clip-path="url(#clip0_116_1133)">
<path fill-rule="evenodd" clip-rule="evenodd" d="M7.26111 21.7228H4.74055C2.16235 21.7228 0.0595703 19.6105 0.0595703 17.0207V14.4888V7.25488H6.53272H6.5405V13.9463C6.5405 14.2451 6.78313 14.4888 7.08061 14.4888H7.26111H14.0106H14.6431C14.9406 14.4888 15.1832 14.2451 15.1832 13.9463V7.25488H21.6642H21.6642V14.4888H21.6642V21.7228H15.1832V19.9157C15.1825 20.9112 14.374 21.7228 13.3829 21.7228H7.26114H7.26111Z" fill="black"/>
<path fill-rule="evenodd" clip-rule="evenodd" d="M10.8618 0.0214844L21.6641 7.25544H15.1832V13.9469C15.1832 14.2457 14.9406 14.4894 14.6431 14.4894H10.8618H7.08059C6.78311 14.4894 6.54048 14.2457 6.54048 13.9469V7.25544H6.5327H3.30004H0.0595703L3.30004 5.08539V2.91537H6.5327V2.92058L10.8618 0.0214844Z" fill="#4BDE80"/>
</g>
<defs>
<clipPath id="clip0_116_1133">
<rect width="21.7236" height="21.7236" fill="white"/>
</clipPath>
</defs>
</svg>
